<svg width="513" height="513" viewBox="0 0 513 513" fill="none" xmlns="http://www.w3.org/2000/svg">
<path d="M480.459 128.034C480.459 111.06 473.716 94.7812 461.714 82.7789C449.711 70.7765 433.433 64.0337 416.459 64.0337H400.459V48.4837C400.459 39.8737 393.839 32.4837 385.229 32.0537C383.066 31.9495 380.904 32.2855 378.874 33.0416C376.844 33.7976 374.989 34.9578 373.421 36.4519C371.853 37.946 370.605 39.7429 369.752 41.7337C368.899 43.7246 368.459 45.8678 368.459 48.0337V64.0337H144.459V48.4837C144.459 39.8737 137.839 32.4837 129.229 32.0537C127.066 31.9495 124.904 32.2855 122.874 33.0416C120.844 33.7976 118.989 34.9578 117.421 36.4519C115.853 37.946 114.605 39.7429 113.752 41.7337C112.899 43.7246 112.459 45.8678 112.459 48.0337V64.0337H96.459C79.4851 64.0337 63.2065 70.7765 51.2042 82.7789C39.2018 94.7812 32.459 111.06 32.459 128.034V140.034C32.459 141.095 32.8804 142.112 33.6306 142.862C34.3807 143.612 35.3981 144.034 36.459 144.034H476.459C477.52 144.034 478.537 143.612 479.287 142.862C480.038 142.112 480.459 141.095 480.459 140.034V128.034ZM32.459 416.034C32.459 433.008 39.2018 449.286 51.2042 461.289C63.2065 473.291 79.4851 480.034 96.459 480.034H416.459C433.433 480.034 449.711 473.291 461.714 461.289C473.716 449.286 480.459 433.008 480.459 416.034V179.034C480.459 178.238 480.143 177.475 479.58 176.912C479.018 176.35 478.255 176.034 477.459 176.034H35.459C34.6633 176.034 33.9003 176.35 33.3377 176.912C32.7751 177.475 32.459 178.238 32.459 179.034V416.034ZM376.459 208.034C381.206 208.034 385.846 209.441 389.793 212.078C393.739 214.716 396.816 218.464 398.632 222.849C400.449 227.235 400.924 232.06 399.998 236.716C399.072 241.371 396.786 245.648 393.43 249.004C390.073 252.361 385.797 254.646 381.141 255.573C376.486 256.499 371.66 256.023 367.275 254.207C362.889 252.39 359.141 249.314 356.504 245.367C353.867 241.421 352.459 236.78 352.459 232.034C352.459 225.668 354.988 219.564 359.488 215.063C363.989 210.562 370.094 208.034 376.459 208.034ZM376.459 288.034C381.206 288.034 385.846 289.441 389.793 292.078C393.739 294.716 396.816 298.464 398.632 302.849C400.449 307.235 400.924 312.06 399.998 316.716C399.072 321.371 396.786 325.648 393.43 329.004C390.073 332.361 385.797 334.646 381.141 335.573C376.486 336.499 371.66 336.023 367.275 334.207C362.889 332.39 359.141 329.314 356.504 325.367C353.867 321.421 352.459 316.78 352.459 312.034C352.459 305.668 354.988 299.564 359.488 295.063C363.989 290.562 370.094 288.034 376.459 288.034ZM296.459 208.034C301.206 208.034 305.846 209.441 309.793 212.078C313.739 214.716 316.816 218.464 318.632 222.849C320.449 227.235 320.924 232.06 319.998 236.716C319.072 241.371 316.786 245.648 313.43 249.004C310.073 252.361 305.797 254.646 301.141 255.573C296.486 256.499 291.66 256.023 287.275 254.207C282.889 252.39 279.141 249.314 276.504 245.367C273.867 241.421 272.459 236.78 272.459 232.034C272.459 225.668 274.988 219.564 279.488 215.063C283.989 210.562 290.094 208.034 296.459 208.034ZM296.459 288.034C301.206 288.034 305.846 289.441 309.793 292.078C313.739 294.716 316.816 298.464 318.632 302.849C320.449 307.235 320.924 312.06 319.998 316.716C319.072 321.371 316.786 325.648 313.43 329.004C310.073 332.361 305.797 334.646 301.141 335.573C296.486 336.499 291.66 336.023 287.275 334.207C282.889 332.39 279.141 329.314 276.504 325.367C273.867 321.421 272.459 316.78 272.459 312.034C272.459 305.668 274.988 299.564 279.488 295.063C283.989 290.562 290.094 288.034 296.459 288.034ZM296.459 368.034C301.206 368.034 305.846 369.441 309.793 372.078C313.739 374.716 316.816 378.464 318.632 382.849C320.449 387.235 320.924 392.06 319.998 396.716C319.072 401.371 316.786 405.648 313.43 409.004C310.073 412.361 305.797 414.646 301.141 415.573C296.486 416.499 291.66 416.023 287.275 414.207C282.889 412.39 279.141 409.314 276.504 405.367C273.867 401.421 272.459 396.78 272.459 392.034C272.459 385.668 274.988 379.564 279.488 375.063C283.989 370.562 290.094 368.034 296.459 368.034ZM216.459 288.034C221.206 288.034 225.846 289.441 229.793 292.078C233.739 294.716 236.816 298.464 238.632 302.849C240.449 307.235 240.924 312.06 239.998 316.716C239.072 321.371 236.786 325.648 233.43 329.004C230.073 332.361 225.797 334.646 221.141 335.573C216.486 336.499 211.66 336.023 207.275 334.207C202.889 332.39 199.141 329.314 196.504 325.367C193.867 321.421 192.459 316.78 192.459 312.034C192.459 305.668 194.988 299.564 199.488 295.063C203.989 290.562 210.094 288.034 216.459 288.034ZM216.459 368.034C221.206 368.034 225.846 369.441 229.793 372.078C233.739 374.716 236.816 378.464 238.632 382.849C240.449 387.235 240.924 392.06 239.998 396.716C239.072 401.371 236.786 405.648 233.43 409.004C230.073 412.361 225.797 414.646 221.141 415.573C216.486 416.499 211.66 416.023 207.275 414.207C202.889 412.39 199.141 409.314 196.504 405.367C193.867 401.421 192.459 396.78 192.459 392.034C192.459 385.668 194.988 379.564 199.488 375.063C203.989 370.562 210.094 368.034 216.459 368.034ZM136.459 288.034C141.206 288.034 145.846 289.441 149.793 292.078C153.739 294.716 156.816 298.464 158.632 302.849C160.449 307.235 160.924 312.06 159.998 316.716C159.072 321.371 156.786 325.648 153.43 329.004C150.073 332.361 145.797 334.646 141.141 335.573C136.486 336.499 131.66 336.023 127.275 334.207C122.889 332.39 119.141 329.314 116.504 325.367C113.867 321.421 112.459 316.78 112.459 312.034C112.459 305.668 114.988 299.564 119.488 295.063C123.989 290.562 130.094 288.034 136.459 288.034ZM136.459 368.034C141.206 368.034 145.846 369.441 149.793 372.078C153.739 374.716 156.816 378.464 158.632 382.849C160.449 387.235 160.924 392.06 159.998 396.716C159.072 401.371 156.786 405.648 153.43 409.004C150.073 412.361 145.797 414.646 141.141 415.573C136.486 416.499 131.66 416.023 127.275 414.207C122.889 412.39 119.141 409.314 116.504 405.367C113.867 401.421 112.459 396.78 112.459 392.034C112.459 385.668 114.988 379.564 119.488 375.063C123.989 370.562 130.094 368.034 136.459 368.034Z" fill="white"/>
</svg>
