<svg width="50" height="50" viewBox="0 0 50 50" fill="none" xmlns="http://www.w3.org/2000/svg">
<rect width="50" height="50" rx="25" fill="#F4DC00"/>
<path d="M39.0512 14.7899L26.7059 7.38575C26.2625 7.13295 25.7608 7 25.2504 7C24.74 7 24.2383 7.13295 23.7949 7.38575L11.4488 14.7891C11.0039 15.0618 10.6368 15.4446 10.383 15.9005C10.1292 16.3565 9.99732 16.8701 10 17.3919V32.1789C9.99737 32.701 10.1293 33.215 10.383 33.6713C10.6368 34.1276 11.0038 34.5108 11.4488 34.7841L14.6862 36.7173L14.7045 36.7276C16.3391 37.564 16.965 37.564 17.6902 37.564C20.2429 37.564 21.8291 35.9119 21.8291 33.2519V18.9146C21.8306 18.7356 21.761 18.5633 21.6356 18.4355C21.5102 18.3078 21.3393 18.235 21.1603 18.2331H19.3827C19.2037 18.235 19.0328 18.3078 18.9074 18.4355C18.7821 18.5633 18.7125 18.7356 18.714 18.9146V33.2519C18.7204 33.4572 18.6737 33.6606 18.5784 33.8425C18.4831 34.0244 18.3424 34.1785 18.1699 34.29C17.7013 34.576 17.0206 34.5156 16.2525 34.1192L13.1501 32.2519C13.1382 32.2438 13.1285 32.2329 13.1219 32.2202C13.1152 32.2074 13.1118 32.1932 13.112 32.1789V17.6008C13.1125 17.5841 13.117 17.5677 13.1252 17.553C13.1333 17.5384 13.1449 17.5259 13.1588 17.5166L25.219 10.1299C25.228 10.1255 25.238 10.1231 25.248 10.1231C25.2581 10.1231 25.268 10.1255 25.277 10.1299L37.3443 17.5166C37.3581 17.5267 37.3692 17.5398 37.3768 17.555C37.3844 17.5702 37.3882 17.587 37.388 17.604V32.1789C37.3883 32.1939 37.3853 32.2088 37.3791 32.2226C37.3729 32.2363 37.3637 32.2485 37.3523 32.2583L25.2746 39.4583C25.254 39.4655 25.2317 39.4655 25.2111 39.4583L22.1269 37.6267C22.0354 37.5669 21.9296 37.5324 21.8204 37.5266C21.7111 37.5209 21.6023 37.5442 21.505 37.5942L21.478 37.6101C20.6266 38.1144 20.3978 38.2455 19.6083 38.533C19.4796 38.5799 19.177 38.6919 19.1508 38.9913C19.1246 39.2907 19.4121 39.5036 19.6679 39.6521L23.7901 42.1835C24.2294 42.4466 24.7317 42.5857 25.2436 42.5862H25.2897C25.7889 42.5783 26.2773 42.4395 26.7059 42.1835L39.0512 34.7864C39.4959 34.5124 39.8627 34.1286 40.1164 33.672C40.3701 33.2154 40.5022 32.7012 40.5 32.1789V17.3919C40.5025 16.8703 40.3705 16.3568 40.1167 15.901C39.8629 15.4452 39.496 15.0626 39.0512 14.7899Z" fill="white"/>
<path d="M29.3707 29.7193C26.4089 29.7193 25.7775 28.8917 25.59 27.5558C25.5689 27.3967 25.4914 27.2505 25.3716 27.1438C25.2517 27.0371 25.0976 26.977 24.9371 26.9744H23.3645C23.1872 26.9781 23.0187 27.0519 22.8957 27.1796C22.7728 27.3074 22.7054 27.4786 22.7084 27.6558C22.7084 28.8139 23.1151 32.5938 29.3739 32.5938C31.3103 32.5938 32.9211 32.1411 34.0307 31.2841C35.1403 30.427 35.7344 29.18 35.7344 27.694C35.7344 24.7115 33.7885 23.895 29.9561 23.3612C26.0602 22.8195 26.0602 22.5439 26.0602 21.9403C26.0602 21.5058 26.0602 20.4884 28.8767 20.4884C30.8806 20.4884 31.9537 20.7417 32.2968 22.0769C32.3272 22.2249 32.4072 22.3581 32.5237 22.4545C32.6401 22.5508 32.7859 22.6045 32.937 22.6067H34.5152C34.6082 22.6057 34.7 22.585 34.7843 22.5458C34.8687 22.5067 34.9438 22.45 35.0045 22.3795C35.1258 22.2379 35.1863 22.054 35.1729 21.868C34.9687 19.0444 32.9044 17.6123 28.8791 17.6123C25.2207 17.6123 23.0372 19.2604 23.0372 22.0205C23.0372 25.0467 25.3001 25.9021 28.6996 26.2563C32.6709 26.667 32.6709 27.2658 32.6709 27.7948C32.6733 28.6193 32.331 29.7193 29.3707 29.7193Z" fill="white"/>
</svg>
