<svg width="100" height="100" viewBox="0 0 100 100" fill="none" xmlns="http://www.w3.org/2000/svg">
<circle cx="50" cy="50" r="50" fill="#005C53"/>
<path d="M40.626 59.164L27.536 53.826C26.312 53.3273 25.7 52.4547 25.7 51.208C25.7 50.596 25.8473 50.086 26.142 49.678C26.4593 49.2473 26.924 48.9073 27.536 48.658L40.626 43.286C41.0793 43.1047 41.476 43.082 41.816 43.218C42.1787 43.3313 42.462 43.5353 42.666 43.83C42.8927 44.1247 43.0173 44.4647 43.04 44.85C43.0627 45.2127 42.9833 45.564 42.802 45.904C42.6207 46.2213 42.3147 46.4707 41.884 46.652L27.298 52.5V49.984L41.884 55.866C42.3147 56.0473 42.6207 56.308 42.802 56.648C42.9833 56.9653 43.0627 57.3053 43.04 57.668C43.0173 58.0307 42.8927 58.3593 42.666 58.654C42.462 58.9487 42.1787 59.1527 41.816 59.266C41.476 59.3793 41.0793 59.3453 40.626 59.164ZM48.0587 61.884C47.9001 62.3827 47.6394 62.7453 47.2767 62.972C46.9367 63.1987 46.5514 63.312 46.1207 63.312C45.7127 63.312 45.3387 63.1987 44.9987 62.972C44.6587 62.768 44.4094 62.4733 44.2507 62.088C44.0921 61.7027 44.1034 61.238 44.2847 60.694L51.9687 36.724C52.1274 36.2253 52.3881 35.8627 52.7507 35.636C53.1134 35.3867 53.4874 35.2733 53.8727 35.296C54.2807 35.296 54.6547 35.4093 54.9947 35.636C55.3574 35.84 55.6181 36.1347 55.7767 36.52C55.9354 36.8827 55.9241 37.336 55.7427 37.88L48.0587 61.884ZM59.4506 59.164C58.9972 59.3453 58.5892 59.3793 58.2266 59.266C57.8639 59.1527 57.5806 58.9487 57.3766 58.654C57.1726 58.3593 57.0479 58.0307 57.0026 57.668C56.9799 57.3053 57.0592 56.9653 57.2406 56.648C57.4446 56.308 57.7619 56.0473 58.1926 55.866L72.7786 49.984V52.5L58.1926 46.652C57.7619 46.4707 57.4446 46.2213 57.2406 45.904C57.0592 45.564 56.9799 45.2127 57.0026 44.85C57.0479 44.4647 57.1726 44.1247 57.3766 43.83C57.5806 43.5353 57.8639 43.3313 58.2266 43.218C58.5892 43.082 58.9972 43.1047 59.4506 43.286L72.5406 48.658C73.7646 49.1567 74.3766 50.0067 74.3766 51.208C74.3766 51.82 74.2179 52.3413 73.9006 52.772C73.6059 53.2027 73.1526 53.554 72.5406 53.826L59.4506 59.164Z" fill="white"/>
</svg>
