<svg width="74" height="74" viewBox="0 0 74 74" fill="none" xmlns="http://www.w3.org/2000/svg">
<circle cx="37" cy="37" r="37" fill="#042940"/>
<path d="M28.672 48.884C28.5133 49.3827 28.2527 49.7453 27.89 49.972C27.55 50.1987 27.1647 50.312 26.734 50.312C26.326 50.312 25.952 50.1987 25.612 49.972C25.272 49.768 25.0227 49.4733 24.864 49.088C24.7053 48.7027 24.7167 48.238 24.898 47.694L32.582 23.724C32.7407 23.2253 33.0013 22.8627 33.364 22.636C33.7267 22.3867 34.1007 22.2733 34.486 22.296C34.894 22.296 35.268 22.4093 35.608 22.636C35.9707 22.84 36.2313 23.1347 36.39 23.52C36.5487 23.8827 36.5373 24.336 36.356 24.88L28.672 48.884ZM40.0639 46.164C39.6105 46.3453 39.2025 46.3793 38.8399 46.266C38.4772 46.1527 38.1939 45.9487 37.9899 45.654C37.7859 45.3593 37.6612 45.0307 37.6159 44.668C37.5932 44.3053 37.6725 43.9653 37.8539 43.648C38.0579 43.308 38.3752 43.0473 38.8059 42.866L53.3919 36.984V39.5L38.8059 33.652C38.3752 33.4707 38.0579 33.2213 37.8539 32.904C37.6725 32.564 37.5932 32.2127 37.6159 31.85C37.6612 31.4647 37.7859 31.1247 37.9899 30.83C38.1939 30.5353 38.4772 30.3313 38.8399 30.218C39.2025 30.082 39.6105 30.1047 40.0639 30.286L53.1539 35.658C54.3779 36.1567 54.9899 37.0067 54.9899 38.208C54.9899 38.82 54.8312 39.3413 54.5139 39.772C54.2192 40.2027 53.7659 40.554 53.1539 40.826L40.0639 46.164Z" fill="white"/>
</svg>
