<svg width="26" height="21" viewBox="0 0 26 21" fill="none" xmlns="http://www.w3.org/2000/svg">
<path d="M22.75 0H3.25C2.38833 0.000921738 1.56221 0.343627 0.952921 0.952921C0.343628 1.56221 0.000921738 2.38833 0 3.25V17.1786C0.000921738 18.0402 0.343628 18.8664 0.952921 19.4756C1.56221 20.0849 2.38833 20.4276 3.25 20.4286H22.75C23.6117 20.4276 24.4378 20.0849 25.0471 19.4756C25.6564 18.8664 25.9991 18.0402 26 17.1786V3.25C25.9991 2.38833 25.6564 1.56221 25.0471 0.952921C24.4378 0.343627 23.6117 0.000921738 22.75 0ZM21.9271 5.37585L13.5699 11.8758C13.4069 12.0025 13.2064 12.0713 13 12.0713C12.7936 12.0713 12.5931 12.0025 12.4301 11.8758L4.07295 5.37585C3.97476 5.3017 3.89228 5.20877 3.83032 5.10247C3.76835 4.99618 3.72813 4.87862 3.71199 4.75664C3.69585 4.63466 3.70412 4.51069 3.7363 4.39194C3.76849 4.27318 3.82395 4.162 3.89948 4.06487C3.975 3.96773 4.06908 3.88658 4.17624 3.82611C4.2834 3.76565 4.40151 3.72709 4.5237 3.71266C4.64589 3.69824 4.76973 3.70825 4.88803 3.7421C5.00632 3.77596 5.1167 3.83298 5.21277 3.90987L13 9.96647L20.7872 3.90987C20.982 3.76282 21.2267 3.69832 21.4686 3.73033C21.7105 3.76234 21.9301 3.88828 22.0799 4.08091C22.2297 4.27354 22.2976 4.51739 22.269 4.75972C22.2404 5.00204 22.1176 5.22338 21.9271 5.37585Z" fill="#FFB342"/>
</svg>
