<svg width="50" height="50" viewBox="0 0 50 50" fill="none" xmlns="http://www.w3.org/2000/svg">
<rect width="50" height="50" rx="25" fill="#3178C6"/>
<path d="M29.5 21C30.6935 21 31.8381 20.5259 32.682 19.682C33.5259 18.8381 34 17.6935 34 16.5C34 15.3065 33.5259 14.1619 32.682 13.318C31.8381 12.4741 30.6935 12 29.5 12H20.5C19.3065 12 18.1619 12.4741 17.318 13.318C16.4741 14.1619 16 15.3065 16 16.5C16 17.6935 16.4741 18.8381 17.318 19.682C18.1619 20.5259 19.3065 21 20.5 21C19.3065 21 18.1619 21.4741 17.318 22.318C16.4741 23.1619 16 24.3065 16 25.5C16 26.6935 16.4741 27.8381 17.318 28.682C18.1619 29.5259 19.3065 30 20.5 30C19.61 30 18.74 30.2639 17.9999 30.7584C17.2599 31.2528 16.6831 31.9557 16.3425 32.7779C16.0019 33.6002 15.9128 34.505 16.0865 35.3779C16.2601 36.2508 16.6887 37.0526 17.318 37.682C17.9474 38.3113 18.7492 38.7399 19.6221 38.9135C20.495 39.0872 21.3998 38.998 22.2221 38.6575C23.0443 38.3169 23.7471 37.7401 24.2416 37.0001C24.7361 36.26 25 35.39 25 34.5V21H29.5Z" fill="white"/>
<path d="M29.5 30C31.9853 30 34 27.9853 34 25.5C34 23.0147 31.9853 21 29.5 21C27.0147 21 25 23.0147 25 25.5C25 27.9853 27.0147 30 29.5 30Z" fill="white"/>
</svg>
