<svg width="50" height="50" viewBox="0 0 50 50" fill="none" xmlns="http://www.w3.org/2000/svg">
<rect width="50" height="50" rx="25" fill="#3178C6"/>
<path d="M11.7955 20.6634V18.4545H23.4006V20.6634H18.9048V33H16.2912V20.6634H11.7955ZM33.5426 22.4531C33.4763 21.8329 33.197 21.3499 32.7045 21.0043C32.2169 20.6586 31.5824 20.4858 30.8011 20.4858C30.2519 20.4858 29.7808 20.5687 29.3878 20.7344C28.9948 20.9001 28.6941 21.125 28.4858 21.4091C28.2775 21.6932 28.1709 22.0175 28.1662 22.3821C28.1662 22.6851 28.2348 22.9479 28.3722 23.1705C28.5142 23.393 28.706 23.5824 28.9474 23.7386C29.1889 23.8902 29.4564 24.018 29.75 24.1222C30.0436 24.2263 30.3395 24.3139 30.6378 24.3849L32.0014 24.7259C32.5507 24.8537 33.0786 25.0265 33.5852 25.2443C34.0966 25.4621 34.5535 25.7367 34.956 26.0682C35.3632 26.3996 35.6851 26.7997 35.9219 27.2685C36.1586 27.7372 36.277 28.2865 36.277 28.9162C36.277 29.7685 36.0592 30.5189 35.6236 31.1676C35.188 31.8116 34.5582 32.3158 33.7344 32.6804C32.9152 33.0402 31.9233 33.2202 30.7585 33.2202C29.6269 33.2202 28.6444 33.045 27.8111 32.6946C26.9825 32.3442 26.3338 31.8329 25.8651 31.1605C25.401 30.4882 25.1501 29.669 25.1122 28.7031H27.7045C27.7424 29.2098 27.8987 29.6312 28.1733 29.9673C28.4479 30.3035 28.8054 30.5545 29.2457 30.7202C29.6908 30.8859 30.188 30.9688 30.7372 30.9688C31.3101 30.9688 31.812 30.8835 32.2429 30.7131C32.6785 30.5379 33.0194 30.2964 33.2656 29.9886C33.5118 29.6761 33.6373 29.3116 33.642 28.8949C33.6373 28.5161 33.526 28.2036 33.3082 27.9574C33.0904 27.7064 32.785 27.4981 32.392 27.3324C32.0038 27.1619 31.5492 27.0104 31.0284 26.8778L29.3736 26.4517C28.1757 26.1439 27.2287 25.6776 26.5327 25.0526C25.8414 24.4228 25.4957 23.5871 25.4957 22.5455C25.4957 21.6884 25.7277 20.938 26.1918 20.294C26.6605 19.6501 27.2973 19.1506 28.1023 18.7955C28.9072 18.4356 29.8187 18.2557 30.8366 18.2557C31.8688 18.2557 32.7732 18.4356 33.5497 18.7955C34.331 19.1506 34.9441 19.6454 35.3892 20.2798C35.8343 20.9096 36.0639 21.634 36.0781 22.4531H33.5426Z" fill="white"/>
</svg>
