<svg width="513" height="513" viewBox="0 0 513 513" fill="none" xmlns="http://www.w3.org/2000/svg">
<path d="M432.748 176.287H320.748V64.2866C320.748 51.5562 315.691 39.3472 306.689 30.3455C297.687 21.3437 285.478 16.2866 272.748 16.2866H80.748C68.0177 16.2866 55.8087 21.3437 46.8069 30.3455C37.8052 39.3472 32.748 51.5562 32.748 64.2866V480.287C32.748 484.53 34.4338 488.6 37.4343 491.6C40.4349 494.601 44.5046 496.287 48.748 496.287H152.748C154.87 496.287 156.905 495.444 158.405 493.943C159.905 492.443 160.748 490.408 160.748 488.287V416.737C160.748 408.127 167.368 400.737 175.978 400.307C178.141 400.202 180.303 400.538 182.333 401.294C184.363 402.051 186.218 403.211 187.786 404.705C189.354 406.199 190.602 407.996 191.455 409.987C192.308 411.977 192.748 414.121 192.748 416.287V488.287C192.748 490.408 193.591 492.443 195.091 493.943C196.591 495.444 198.626 496.287 200.748 496.287H464.748C468.992 496.287 473.061 494.601 476.062 491.6C479.062 488.6 480.748 484.53 480.748 480.287V224.287C480.748 211.556 475.691 199.347 466.689 190.345C457.687 181.344 445.478 176.287 432.748 176.287ZM98.828 432.157C95.5143 432.59 92.1481 431.975 89.2018 430.398C86.2555 428.82 83.877 426.36 82.4002 423.362C80.9234 420.364 80.4223 416.979 80.9674 413.682C81.5125 410.385 83.0763 407.341 85.4394 404.978C87.8025 402.615 90.8463 401.051 94.1435 400.506C97.4406 399.961 100.826 400.462 103.824 401.939C106.822 403.416 109.282 405.794 110.859 408.74C112.436 411.687 113.051 415.053 112.618 418.367C112.161 421.864 110.561 425.112 108.067 427.605C105.573 430.099 102.325 431.699 98.828 432.157ZM98.828 352.157C95.5143 352.59 92.1481 351.975 89.2018 350.398C86.2555 348.82 83.877 346.36 82.4002 343.362C80.9234 340.364 80.4223 336.979 80.9674 333.682C81.5125 330.385 83.0763 327.341 85.4394 324.978C87.8025 322.615 90.8463 321.051 94.1435 320.506C97.4406 319.961 100.826 320.462 103.824 321.939C106.822 323.416 109.282 325.794 110.859 328.74C112.436 331.687 113.051 335.053 112.618 338.367C112.161 341.864 110.561 345.112 108.067 347.605C105.573 350.099 102.325 351.699 98.828 352.157ZM98.828 272.157C95.5143 272.59 92.1481 271.975 89.2018 270.398C86.2555 268.82 83.877 266.36 82.4002 263.362C80.9234 260.364 80.4223 256.979 80.9674 253.682C81.5125 250.385 83.0763 247.341 85.4394 244.978C87.8025 242.615 90.8463 241.051 94.1435 240.506C97.4406 239.961 100.826 240.462 103.824 241.939C106.822 243.416 109.282 245.794 110.859 248.74C112.436 251.687 113.051 255.053 112.618 258.367C112.161 261.864 110.561 265.112 108.067 267.605C105.573 270.099 102.325 271.699 98.828 272.157ZM98.828 192.157C95.5143 192.59 92.1481 191.975 89.2018 190.398C86.2555 188.82 83.877 186.36 82.4002 183.362C80.9234 180.364 80.4223 176.979 80.9674 173.682C81.5125 170.385 83.0763 167.341 85.4394 164.978C87.8025 162.615 90.8463 161.051 94.1435 160.506C97.4406 159.961 100.826 160.462 103.824 161.939C106.822 163.416 109.282 165.794 110.859 168.74C112.436 171.687 113.051 175.053 112.618 178.367C112.161 181.864 110.561 185.112 108.067 187.605C105.573 190.099 102.325 191.699 98.828 192.157ZM98.828 112.157C95.5143 112.59 92.1481 111.975 89.2018 110.398C86.2555 108.82 83.877 106.36 82.4002 103.362C80.9234 100.364 80.4223 96.9792 80.9674 93.682C81.5125 90.3849 83.0763 87.3411 85.4394 84.978C87.8025 82.6149 90.8463 81.0511 94.1435 80.506C97.4406 79.9609 100.826 80.4619 103.824 81.9388C106.822 83.4156 109.282 85.794 110.859 88.7404C112.436 91.6867 113.051 95.0529 112.618 98.3666C112.161 101.864 110.561 105.112 108.067 107.605C105.573 110.099 102.325 111.699 98.828 112.157ZM178.828 352.157C175.514 352.59 172.148 351.975 169.202 350.398C166.255 348.82 163.877 346.36 162.4 343.362C160.923 340.364 160.422 336.979 160.967 333.682C161.513 330.385 163.076 327.341 165.439 324.978C167.803 322.615 170.846 321.051 174.143 320.506C177.441 319.961 180.826 320.462 183.824 321.939C186.822 323.416 189.282 325.794 190.859 328.74C192.436 331.687 193.051 335.053 192.618 338.367C192.161 341.864 190.561 345.112 188.067 347.605C185.573 350.099 182.325 351.699 178.828 352.157ZM178.828 272.157C175.514 272.59 172.148 271.975 169.202 270.398C166.255 268.82 163.877 266.36 162.4 263.362C160.923 260.364 160.422 256.979 160.967 253.682C161.513 250.385 163.076 247.341 165.439 244.978C167.803 242.615 170.846 241.051 174.143 240.506C177.441 239.961 180.826 240.462 183.824 241.939C186.822 243.416 189.282 245.794 190.859 248.74C192.436 251.687 193.051 255.053 192.618 258.367C192.161 261.864 190.561 265.112 188.067 267.605C185.573 270.099 182.325 271.699 178.828 272.157ZM178.828 192.157C175.514 192.59 172.148 191.975 169.202 190.398C166.255 188.82 163.877 186.36 162.4 183.362C160.923 180.364 160.422 176.979 160.967 173.682C161.513 170.385 163.076 167.341 165.439 164.978C167.803 162.615 170.846 161.051 174.143 160.506C177.441 159.961 180.826 160.462 183.824 161.939C186.822 163.416 189.282 165.794 190.859 168.74C192.436 171.687 193.051 175.053 192.618 178.367C192.161 181.864 190.561 185.112 188.067 187.605C185.573 190.099 182.325 191.699 178.828 192.157ZM178.828 112.157C175.514 112.59 172.148 111.975 169.202 110.398C166.255 108.82 163.877 106.36 162.4 103.362C160.923 100.364 160.422 96.9792 160.967 93.682C161.513 90.3849 163.076 87.3411 165.439 84.978C167.803 82.6149 170.846 81.0511 174.143 80.506C177.441 79.9609 180.826 80.4619 183.824 81.9388C186.822 83.4156 189.282 85.794 190.859 88.7404C192.436 91.6867 193.051 95.0529 192.618 98.3666C192.161 101.864 190.561 105.112 188.067 107.605C185.573 110.099 182.325 111.699 178.828 112.157ZM258.828 432.157C255.514 432.59 252.148 431.975 249.202 430.398C246.255 428.82 243.877 426.36 242.4 423.362C240.923 420.364 240.422 416.979 240.967 413.682C241.513 410.385 243.076 407.341 245.439 404.978C247.803 402.615 250.846 401.051 254.143 400.506C257.441 399.961 260.826 400.462 263.824 401.939C266.822 403.416 269.282 405.794 270.859 408.74C272.436 411.687 273.051 415.053 272.618 418.367C272.161 421.864 270.561 425.112 268.067 427.605C265.573 430.099 262.325 431.699 258.828 432.157ZM258.828 352.157C255.514 352.59 252.148 351.975 249.202 350.398C246.255 348.82 243.877 346.36 242.4 343.362C240.923 340.364 240.422 336.979 240.967 333.682C241.513 330.385 243.076 327.341 245.439 324.978C247.803 322.615 250.846 321.051 254.143 320.506C257.441 319.961 260.826 320.462 263.824 321.939C266.822 323.416 269.282 325.794 270.859 328.74C272.436 331.687 273.051 335.053 272.618 338.367C272.161 341.864 270.561 345.112 268.067 347.605C265.573 350.099 262.325 351.699 258.828 352.157ZM258.828 272.157C255.514 272.59 252.148 271.975 249.202 270.398C246.255 268.82 243.877 266.36 242.4 263.362C240.923 260.364 240.422 256.979 240.967 253.682C241.513 250.385 243.076 247.341 245.439 244.978C247.803 242.615 250.846 241.051 254.143 240.506C257.441 239.961 260.826 240.462 263.824 241.939C266.822 243.416 269.282 245.794 270.859 248.74C272.436 251.687 273.051 255.053 272.618 258.367C272.161 261.864 270.561 265.112 268.067 267.605C265.573 270.099 262.325 271.699 258.828 272.157ZM258.828 192.157C255.514 192.59 252.148 191.975 249.202 190.398C246.255 188.82 243.877 186.36 242.4 183.362C240.923 180.364 240.422 176.979 240.967 173.682C241.513 170.385 243.076 167.341 245.439 164.978C247.803 162.615 250.846 161.051 254.143 160.506C257.441 159.961 260.826 160.462 263.824 161.939C266.822 163.416 269.282 165.794 270.859 168.74C272.436 171.687 273.051 175.053 272.618 178.367C272.161 181.864 270.561 185.112 268.067 187.605C265.573 190.099 262.325 191.699 258.828 192.157ZM258.828 112.157C255.514 112.59 252.148 111.975 249.202 110.398C246.255 108.82 243.877 106.36 242.4 103.362C240.923 100.364 240.422 96.9792 240.967 93.682C241.513 90.3849 243.076 87.3411 245.439 84.978C247.803 82.6149 250.846 81.0511 254.143 80.506C257.441 79.9609 260.826 80.4619 263.824 81.9388C266.822 83.4156 269.282 85.794 270.859 88.7404C272.436 91.6867 273.051 95.0529 272.618 98.3666C272.161 101.864 270.561 105.112 268.067 107.605C265.573 110.099 262.325 111.699 258.828 112.157ZM444.748 464.287H320.748V208.287H432.748C436.992 208.287 441.061 209.972 444.062 212.973C447.062 215.973 448.748 220.043 448.748 224.287V460.287C448.748 461.347 448.327 462.365 447.576 463.115C446.826 463.865 445.809 464.287 444.748 464.287Z" fill="white"/>
<path d="M400.748 400.287C397.584 400.287 394.49 401.225 391.859 402.983C389.228 404.741 387.177 407.24 385.966 410.164C384.755 413.087 384.438 416.304 385.055 419.408C385.673 422.512 387.197 425.363 389.434 427.6C391.672 429.838 394.523 431.362 397.627 431.979C400.73 432.597 403.947 432.28 406.871 431.069C409.795 429.858 412.293 427.807 414.052 425.176C415.81 422.545 416.748 419.451 416.748 416.287C416.748 412.043 415.062 407.973 412.062 404.973C409.061 401.972 404.992 400.287 400.748 400.287ZM400.748 320.287C397.584 320.287 394.49 321.225 391.859 322.983C389.228 324.741 387.177 327.24 385.966 330.164C384.755 333.087 384.438 336.304 385.055 339.408C385.673 342.512 387.197 345.363 389.434 347.6C391.672 349.838 394.523 351.362 397.627 351.979C400.73 352.597 403.947 352.28 406.871 351.069C409.795 349.858 412.293 347.807 414.052 345.176C415.81 342.545 416.748 339.451 416.748 336.287C416.748 332.043 415.062 327.973 412.062 324.973C409.061 321.972 404.992 320.287 400.748 320.287ZM400.748 240.287C397.584 240.287 394.49 241.225 391.859 242.983C389.228 244.741 387.177 247.24 385.966 250.164C384.755 253.087 384.438 256.304 385.055 259.408C385.673 262.512 387.197 265.363 389.434 267.6C391.672 269.838 394.523 271.362 397.627 271.979C400.73 272.597 403.947 272.28 406.871 271.069C409.795 269.858 412.293 267.807 414.052 265.176C415.81 262.545 416.748 259.451 416.748 256.287C416.748 252.043 415.062 247.973 412.062 244.973C409.061 241.972 404.992 240.287 400.748 240.287ZM336.748 400.287C333.584 400.287 330.49 401.225 327.859 402.983C325.228 404.741 323.177 407.24 321.966 410.164C320.755 413.087 320.438 416.304 321.055 419.408C321.673 422.512 323.197 425.363 325.434 427.6C327.672 429.838 330.523 431.362 333.627 431.979C336.73 432.597 339.947 432.28 342.871 431.069C345.795 429.858 348.293 427.807 350.052 425.176C351.81 422.545 352.748 419.451 352.748 416.287C352.748 412.043 351.062 407.973 348.062 404.973C345.061 401.972 340.992 400.287 336.748 400.287ZM336.748 320.287C333.584 320.287 330.49 321.225 327.859 322.983C325.228 324.741 323.177 327.24 321.966 330.164C320.755 333.087 320.438 336.304 321.055 339.408C321.673 342.512 323.197 345.363 325.434 347.6C327.672 349.838 330.523 351.362 333.627 351.979C336.73 352.597 339.947 352.28 342.871 351.069C345.795 349.858 348.293 347.807 350.052 345.176C351.81 342.545 352.748 339.451 352.748 336.287C352.748 332.043 351.062 327.973 348.062 324.973C345.061 321.972 340.992 320.287 336.748 320.287ZM336.748 240.287C333.584 240.287 330.49 241.225 327.859 242.983C325.228 244.741 323.177 247.24 321.966 250.164C320.755 253.087 320.438 256.304 321.055 259.408C321.673 262.512 323.197 265.363 325.434 267.6C327.672 269.838 330.523 271.362 333.627 271.979C336.73 272.597 339.947 272.28 342.871 271.069C345.795 269.858 348.293 267.807 350.052 265.176C351.81 262.545 352.748 259.451 352.748 256.287C352.748 252.043 351.062 247.973 348.062 244.973C345.061 241.972 340.992 240.287 336.748 240.287Z" fill="white"/>
</svg>
