<svg width="47" height="47" viewBox="0 0 47 47" fill="none" xmlns="http://www.w3.org/2000/svg">
<path d="M27.73 19.7398C28.8518 19.7398 29.9278 19.2941 30.721 18.5008C31.5143 17.7076 31.96 16.6316 31.96 15.5098C31.96 14.3879 31.5143 13.312 30.721 12.5187C29.9278 11.7254 28.8518 11.2798 27.73 11.2798H19.27C18.1481 11.2798 17.0722 11.7254 16.2789 12.5187C15.4856 13.312 15.04 14.3879 15.04 15.5098C15.04 16.6316 15.4856 17.7076 16.2789 18.5008C17.0722 19.2941 18.1481 19.7398 19.27 19.7398C18.1481 19.7398 17.0722 20.1854 16.2789 20.9787C15.4856 21.772 15.04 22.8479 15.04 23.9698C15.04 25.0916 15.4856 26.1676 16.2789 26.9608C17.0722 27.7541 18.1481 28.1998 19.27 28.1998C18.4334 28.1998 17.6155 28.4479 16.9199 28.9127C16.2243 29.3775 15.6821 30.0381 15.362 30.811C15.0418 31.584 14.958 32.4345 15.1213 33.255C15.2845 34.0756 15.6873 34.8293 16.2789 35.4208C16.8705 36.0124 17.6242 36.4153 18.4447 36.5785C19.2653 36.7417 20.1158 36.6579 20.8887 36.3378C21.6617 36.0176 22.3223 35.4755 22.7871 34.7798C23.2519 34.0842 23.5 33.2664 23.5 32.4298V19.7398H27.73Z" fill="white"/>
<path d="M27.73 28.2002C30.0662 28.2002 31.96 26.3064 31.96 23.9702C31.96 21.6341 30.0662 19.7402 27.73 19.7402C25.3938 19.7402 23.5 21.6341 23.5 23.9702C23.5 26.3064 25.3938 28.2002 27.73 28.2002Z" fill="white"/>
</svg>
